<?xml version="1.0" standalone="no"?><!DOCTYPE svg PUBLIC "-//W3C//DTD SVG 1.1//EN"
        "http://www.w3.org/Graphics/SVG/1.1/DTD/svg11.dtd">
<svg t="1589816466897" class="icon" viewBox="0 0 1024 1024" version="1.1" xmlns="http://www.w3.org/2000/svg" p-id="1965"
     xmlns:xlink="http://www.w3.org/1999/xlink" width="200" height="200">
    <defs>
        <style type="text/css"></style>
    </defs>
    <path d="M740.79 925.58h-456.8c-20.8 0-37.63 14.05-37.63 31.42h532.06c-0.01-17.37-16.83-31.42-37.63-31.42z"
          p-id="1966"></path>
    <path d="M527.22 732.46a29.02 24.23 0 1 0 58.04 0 29.02 24.23 0 1 0-58.04 0Z" fill="#d81e06" p-id="1967"></path>
    <path d="M503.97 793.58h16.95c4.37 0 7.32-3.86 5.27-7.18l-8.48-14.15c-1.16-1.82-3.21-2.79-5.27-2.79-2.18 0-4.24 0.97-5.27 2.79l-8.48 14.15c-1.91 3.32 0.92 7.18 5.28 7.18z"
          fill="#d81e06" p-id="1968"></path>
    <path d="M321.87 910.14H702.9c30.44 0 55.48-19.73 57.41-45.04l17.98-242.44c2.05-27.66-24.14-51.04-57.41-51.04H303.89c-33.13 0-59.46 23.38-57.41 51.04l17.98 242.44c1.93 25.31 27.1 45.04 57.41 45.04z m82.83-28.2c-9.89 8.26-25.81 8.26-35.7 0-5.78-4.83-8.09-11.26-7.19-17.48-7.45 0.75-15.28-1.18-20.93-6-9.89-8.26-9.89-21.55 0-29.81 9.25-7.72 23.89-8.15 33.78-1.39l37.11-30.99c3.6 1.61 7.32 3 11.04 4.29 1.28 0.43 2.57 0.86 3.72 1.29v11.69c0 6.43 3.08 12.33 7.96 16.62l-28.25 23.59c8.22 8.25 7.71 20.47-1.54 28.19z m279.32-23.48c-5.78 4.83-13.48 6.76-20.93 6 0.9 6.22-1.41 12.76-7.19 17.48-9.89 8.26-25.81 8.26-35.7 0-9.25-7.72-9.76-19.94-1.67-28.2l-28.25-23.59c4.88-4.29 7.96-10.19 7.96-16.62v-11.69c1.28-0.43 2.44-0.86 3.72-1.29 3.72-1.29 7.45-2.57 11.04-4.29l37.11 30.99c9.89-6.76 24.53-6.33 33.78 1.39 9.89 8.26 9.89 21.56 0.13 29.82z m-63.95-258.42c9.89-8.26 25.81-8.26 35.7 0 5.78 4.83 8.09 11.26 7.19 17.48 7.45-0.75 15.28 1.18 20.93 6 9.89 8.15 9.89 21.45 0.13 29.7-9.25 7.72-23.89 8.15-33.78 1.39l-36.73 30.67c-9.37-9.86-20.68-18.34-33.52-24.98l38.4-32.06c-8.08-8.26-7.57-20.48 1.68-28.2z m1.54 151.62c0 22.95-10.66 28.2-26.97 33.78-4.75 1.61-10.15 3.43-15.92 6.33v21.77c0 4.4-4.24 7.93-9.5 7.93H455.69c-5.27 0-9.5-3.54-9.5-7.93v-21.77c-5.78-2.9-11.17-4.72-15.92-6.33-16.31-5.47-26.97-10.83-26.97-33.78 0-50.29 48.93-91.14 109.16-91.14s109.15 40.85 109.15 91.14zM340.87 623.41c5.78-4.83 13.48-6.76 20.93-6-0.9-6.22 1.41-12.76 7.19-17.48 9.89-8.26 25.81-8.26 35.7 0 9.25 7.72 9.76 19.94 1.67 28.2l38.4 32.06c-12.84 6.65-24.14 15.12-33.52 24.98l-36.73-30.67c-9.89 6.76-24.53 6.33-33.78-1.39-9.74-8.14-9.74-21.44 0.14-29.7z"
          fill="#d81e06" p-id="1969"></path>
    <path d="M439.64 732.46a29.02 24.23 0 1 0 58.04 0 29.02 24.23 0 1 0-58.04 0Z" fill="#d81e06" p-id="1970"></path>
    <path d="M949.73 728.93l-69.48-185.29c-17.98-42.36-51.75-79.24-95.29-104.98 35.19-23.27 43.02-46.86 43.02-62.94 0-13.94-5.78-27.88-16.05-40.32-1.54-1.72-3.21-3.43-4.88-5.15L631.5 117.4C603.89 85.77 562.02 67.54 515.4 67h-3.47c-45.98-0.43-86.17 18.66-113.14 48.9L213.22 334.43c-11.43 12.97-17.21 26.91-17.21 41.28 0 16.3 7.71 40 43.66 62.94-44.18 25.73-78.08 62.62-96.45 105.41L74.27 728.93C43.83 806.13 112.79 885.8 210.4 885.8h34.67c-1.28-3.75-2.18-7.61-2.44-11.69l-19.52-264c-2.18-30.13 26.46-55.54 62.54-55.54h454.11c36.09 0 64.73 25.41 62.54 55.54l-19.52 264c-0.26 4.07-1.16 7.93-2.44 11.69h33.65c97.21 0 166.18-79.67 135.74-156.87zM645.62 349.02c0 17.05-7.32 33.67-20.68 46.54-6.29 6-11.69 12.76-16.05 19.84l-2.57 4.29-10.66 17.59c-16.05 26.49-47.9 42.78-83.35 42.78s-67.29-16.3-83.35-42.78l-10.66-17.59-2.57-4.29c-4.37-7.18-9.63-13.94-16.05-19.94-13.36-12.87-20.68-29.49-20.68-46.43v-41.71c0-1.72 0.13-3.43 0.13-5.15 0.13-0.97 0-2.04 0.39-3v-30.13s2.7-36.24 39.81-36.24c0 0 58.43 21.34 95.93 21.45 30.18 0.11 58.69-7.72 84.12-21.55 14.26 0.43 46.23 5.58 46.23 41.5v74.82z"
          fill="#1296db" p-id="1971"></path>
</svg>
